<svg xmlns="http://www.w3.org/2000/svg" version="1.1" xmlns:xlink="http://www.w3.org/1999/xlink" xmlns:svgjs="http://svgjs.com/svgjs" width="1440" height="560" preserveAspectRatio="none" viewBox="0 0 1440 560"><g mask="url(&quot;#SvgjsMask1000&quot;)" fill="none"><rect width="1440" height="560" x="0" y="0" fill="#0e2a47"></rect><path d="M 0,49 C 57.6,78 172.8,182.8 288,194 C 403.2,205.2 460.8,109.8 576,105 C 691.2,100.2 748.8,169.4 864,170 C 979.2,170.6 1036.8,95.2 1152,108 C 1267.2,120.8 1382.4,208.8 1440,234L1440 560L0 560z" fill="#184a7e"></path><path d="M 0,555 C 96,524.4 288,404.6 480,402 C 672,399.4 768,560.4 960,542 C 1152,523.6 1344,356.4 1440,310L1440 560L0 560z" fill="#2264ab"></path></g><defs><mask id="SvgjsMask1000"><rect width="1440" height="560" fill="#ffffff"></rect></mask></defs></svg>